<svg width="40" height="40" viewBox="0 0 40 40" fill="none" xmlns="http://www.w3.org/2000/svg">
<path d="M20 9.58057C14.0711 9.58057 9.24762 14.4041 9.24762 20.333C9.24762 26.2619 14.0711 31.0853 20 31.0853C25.9289 31.0853 30.7523 26.2619 30.7523 20.333C30.7523 14.4041 25.9289 9.58057 20 9.58057ZM20 28.7416C15.3634 28.7416 11.5914 24.9696 11.5914 20.333C11.5914 15.6964 15.3634 11.9243 20 11.9243C24.6365 11.9243 28.4086 15.6964 28.4086 20.333C28.4086 24.9696 24.6365 28.7416 20 28.7416Z" fill="#003135"/>
<path d="M19.9813 18.1782H21.6632C22.3104 18.1782 22.8351 17.6535 22.8351 17.0063C22.8351 16.3591 22.3104 15.8344 21.6632 15.8344H21.1532V15.343C21.1532 14.6958 20.6285 14.1711 19.9813 14.1711C19.3341 14.1711 18.8094 14.6958 18.8094 15.343V16.0908C17.84 16.5364 17.1648 17.516 17.1648 18.6509V18.7257C17.1648 20.2787 18.4282 21.5422 19.9813 21.5422H20.0187C20.2793 21.5422 20.4914 21.7543 20.4914 22.0149C20.4914 22.2755 20.2794 22.4876 20.0187 22.4876H18.3367C17.6895 22.4876 17.1648 23.0123 17.1648 23.6595C17.1648 24.3067 17.6895 24.8314 18.3367 24.8314H18.8467V25.3228C18.8467 25.97 19.3714 26.4947 20.0186 26.4947C20.6658 26.4947 21.1905 25.97 21.1905 25.3228V24.575C22.16 24.1294 22.8351 23.1498 22.8351 22.0149C22.8351 20.4618 21.5717 19.1984 20.0186 19.1984H19.9812C19.7206 19.1984 19.5085 18.9863 19.5085 18.7257V18.6509C19.5085 18.3902 19.7206 18.1782 19.9813 18.1782Z" fill="#003135"/>
<path d="M36.6801 35.5307C36.3038 34.4019 35.5288 33.2123 34.4979 32.1815C34.4979 32.1814 34.4979 32.1814 34.4978 32.1814C34.4708 32.1545 34.4438 32.1277 34.4165 32.101C34.696 30.7714 35.3068 27.637 35.6586 24.1112C36.2923 17.7601 35.7551 13.4091 34.0618 11.1791C33.0769 9.88203 31.3893 8.43414 29.5475 7.30602C28.2361 6.50281 26.3427 5.55609 24.1546 5.10469L25.8322 1.68836C26.0105 1.32523 25.9889 0.895703 25.7749 0.552188C25.5609 0.208672 25.185 0 24.7803 0H15.2197C14.815 0 14.439 0.20875 14.2251 0.552188C14.0112 0.895625 13.9894 1.32523 14.1678 1.68836L15.8326 5.07867C11.3526 5.96992 7.48037 9.14813 5.93818 11.1791C4.2449 13.4091 3.70764 17.7601 4.34139 24.1112C4.69318 27.637 5.30404 30.7714 5.58342 32.101C5.55615 32.1277 5.52904 32.1546 5.50209 32.1815C4.47115 33.2123 3.69615 34.4019 3.3199 35.5307C2.85232 36.9334 3.02584 38.137 3.8085 38.9196C4.73334 39.8445 6.23826 39.9134 7.93732 39.1085C8.71264 38.7412 9.60412 38.6639 10.4472 38.8907C13.184 39.6268 16.3981 40 20 40C23.6019 40 26.816 39.6268 29.5528 38.8907C30.3961 38.664 31.2873 38.7412 32.0626 39.1085C33.7617 39.9132 35.2666 39.8444 36.1915 38.9196C36.9742 38.137 37.1476 36.9334 36.6801 35.5307ZM22.8993 2.34375L21.6654 4.85648H18.3346L17.1007 2.34375H22.8993ZM34.5343 37.2623C34.4607 37.3359 33.9562 37.412 33.0659 36.9903C31.7881 36.3852 30.3244 36.2562 28.9441 36.6273C26.4057 37.3101 23.3965 37.6562 20 37.6562C16.6035 37.6562 13.5943 37.3101 11.0558 36.6273C10.539 36.4884 10.0106 36.4195 9.48443 36.4195C8.60553 36.4195 7.73334 36.6117 6.93396 36.9903C6.04365 37.4121 5.53928 37.3361 5.46568 37.2623C5.4281 37.2248 5.32381 36.9304 5.54334 36.2719C5.80303 35.4929 6.39201 34.6061 7.15928 33.8387C7.31224 33.6859 7.47193 33.5379 7.63404 33.3991C7.9649 33.1155 8.11115 32.6716 8.01365 32.2469C8.00467 32.2078 7.11193 28.2889 6.67123 23.8555C6.11771 18.2866 6.52021 14.288 7.80475 12.5965C9.0531 10.9524 13.0966 7.47664 17.6433 7.20023H22.1898C26.4105 7.45148 30.6539 10.5666 32.1951 12.5965C33.4797 14.288 33.8822 18.2866 33.3287 23.8555C32.8879 28.2889 31.9952 32.2078 31.9862 32.2469C31.8887 32.6716 32.035 33.1155 32.3658 33.3991C32.5279 33.5379 32.6876 33.6859 32.8405 33.8387C33.6079 34.606 34.1969 35.4929 34.4565 36.2719C34.6761 36.9304 34.5719 37.2248 34.5343 37.2623Z" fill="#003135"/>
</svg>
